<svg width="128" height="128" viewBox="0 0 128 128" fill="none" xmlns="http://www.w3.org/2000/svg">
<path d="M63.6568 10.5774C66.5855 10.5774 68.9501 8.20491 68.9501 5.28871C68.9501 2.3725 66.5855 0 63.6568 0C63.4491 0 63.2512 0.00988542 63.0533 0.0296563C65.1014 0.286678 66.6745 2.02651 66.6745 4.15188C66.6745 6.4453 64.8144 8.30376 62.519 8.30376C60.4017 8.30376 58.6603 6.73198 58.4031 4.68569C58.3833 4.8834 58.3734 5.08111 58.3734 5.28871C58.3734 8.20491 60.7381 10.5774 63.6568 10.5774Z" fill="#FFDC9D"/>
<path d="M49.4787 31.5552C48.0143 33.6213 46.9359 36.0432 46.085 38.732C44.8186 32.9787 47.9946 26.7015 52.8921 23.5184C57.3687 20.6353 61.3716 17.3084 64.112 12.5725L64.1118 12.5653L64.114 12.5691L64.1219 12.5554L64.1213 12.5817C66.8716 17.3278 70.8746 20.645 75.3416 23.5282C80.2391 26.7113 83.425 32.9886 82.1586 38.7419C81.3077 36.0432 80.2292 33.6311 78.7649 31.5651C76.9444 28.896 74.3323 26.9189 71.6906 25.1593C67.8039 22.1857 64.3144 17.7796 64.117 12.7264C63.9343 17.7755 60.4371 22.1778 56.5529 25.1495C53.9112 26.919 51.2992 28.8862 49.4787 31.5552Z" fill="#FFDC9D"/>
<path fill-rule="evenodd" clip-rule="evenodd" d="M88.2236 85.4892C91.0336 85.6177 93.8633 85.2322 96.5248 84.2733C101.155 82.7213 105.232 79.5382 108.081 75.5543C106.923 77.7687 105.4 79.8446 103.54 81.5845C98.9587 85.7858 93.5862 87.7233 88.283 87.8419C88.1643 93.1306 86.225 98.5083 82.0201 103.085C80.2688 104.954 78.201 106.466 75.9847 107.623C79.9621 104.786 83.148 100.713 84.7014 96.0864C85.671 93.4272 86.047 90.6 85.9183 87.7925C75.6879 86.9819 66.2588 79.4789 64.0525 68.427C61.8461 79.4789 52.417 86.9819 42.1866 87.7925C41.9293 95.2758 45.323 102.897 52.1103 107.633C47.5986 105.309 43.8982 101.385 41.8304 96.7092C40.5343 93.7831 39.8911 90.7878 39.812 87.8518C34.5187 87.7332 29.1462 85.7957 24.5652 81.5943C22.6953 79.8446 21.1815 77.7786 20.0239 75.5642C22.8635 79.5382 26.9398 82.7213 31.5702 84.2733C34.2318 85.2421 37.0614 85.6177 39.8714 85.4892C40.653 75.0502 48.4495 65.837 59.1846 63.6424C48.4594 61.4478 40.6629 52.2247 39.8813 41.7956C32.3915 41.5386 24.7631 44.9293 20.0239 51.7107C22.349 47.2029 26.2769 43.5058 30.9568 41.4397C33.8855 40.1447 36.8735 39.5022 39.812 39.4231C39.8911 36.497 40.5343 33.5017 41.8304 30.5756C43.8982 25.8899 47.5986 21.9654 52.1103 19.6522C45.323 24.3775 41.9194 32.009 42.1866 39.4824C52.6347 40.2633 61.856 48.0531 64.0525 58.7689C66.2489 48.0531 75.4801 40.2633 85.9183 39.4824C86.047 36.6749 85.6611 33.8477 84.7014 31.1885C83.1381 26.572 79.9621 22.4992 75.9847 19.6522C78.201 20.8088 80.2787 22.3312 82.0201 24.1896C86.225 28.7666 88.1643 34.1344 88.283 39.4231C91.2215 39.5022 94.2195 40.1447 97.1481 41.4397C101.838 43.5058 105.766 47.2029 108.081 51.7107C103.342 44.9293 95.7036 41.5287 88.2236 41.7956C87.4123 52.027 79.9027 61.4379 68.8412 63.6424C79.9027 65.8468 87.4123 75.2677 88.2236 85.4892ZM42.424 85.2223C48.0933 84.3227 53.4262 81.3077 56.81 76.5725C58.9966 73.7354 60.3422 70.3447 60.8369 66.8354C57.3245 67.3396 53.9407 68.6741 51.0912 70.8588C46.0947 74.546 43.2452 79.7458 42.424 85.2223ZM42.4141 42.0328C43.2353 47.5193 46.0848 52.7289 51.0912 56.4161C53.9407 58.6008 57.3344 59.9354 60.8369 60.4395C60.3323 56.9302 58.9966 53.5494 56.81 50.7024C53.1195 45.7003 47.9053 42.8533 42.4141 42.0328ZM85.6512 42.0328C80.1699 42.8533 74.9656 45.7003 71.2751 50.6925C69.0984 53.5395 67.7528 56.9302 67.2482 60.4296C70.7606 59.9255 74.1543 58.5909 76.9939 56.4063C81.7232 53.0353 84.7409 47.7071 85.6512 42.0328ZM67.2581 66.8354C67.7627 70.3447 69.0984 73.7354 71.285 76.5725C74.6589 81.2978 79.9819 84.3128 85.6611 85.2124C84.7508 79.5481 81.7331 74.2297 77.0038 70.8588C74.1543 68.6741 70.7705 67.3396 67.2581 66.8354Z" fill="#FFDC9D"/>
<path d="M31.9461 49.0807C29.2747 50.8996 27.2959 53.5094 25.5348 56.1488C22.5579 60.033 18.1465 63.5299 13.0874 63.7163C18.1424 63.8973 22.55 67.3922 25.5249 71.2739C27.296 73.9133 29.2649 76.5231 31.9363 78.342C34.0041 79.805 36.4282 80.8825 39.1194 81.7327C33.361 82.998 27.0783 79.8248 23.8924 74.9315C21.0066 70.4585 17.6766 66.4589 12.9361 63.7209L12.9199 63.7115L12.9452 63.7121C17.696 60.9642 21.0163 56.9645 23.9023 52.5011C27.0882 47.6078 33.3709 44.4247 39.1292 45.69C36.4282 46.5402 34.014 47.6177 31.9461 49.0807Z" fill="#FFDC9D"/>
<path d="M5.64782 57.969C5.44004 57.969 5.24216 57.9789 5.04428 57.9987C7.09235 58.2557 8.6655 59.9956 8.6655 62.111C8.6655 64.4045 6.80542 66.2629 4.51 66.2629C2.39267 66.2629 0.651313 64.6911 0.384172 62.6448C0.364383 62.8426 0.354492 63.0403 0.354492 63.2479C0.354492 66.1739 2.72907 68.5366 5.64782 68.5366C8.56656 68.5366 10.9411 66.1739 10.9411 63.2479C10.9411 60.3317 8.56656 57.969 5.64782 57.969Z" fill="#FFDC9D"/>
<path d="M102.56 71.2739C100.799 73.9133 98.8204 76.5231 96.149 78.342C94.0811 79.805 91.6669 80.8825 88.9659 81.7327C94.7242 82.998 101.007 79.8149 104.193 74.9216C107.082 70.4534 110.406 66.4498 115.165 63.7017C110.04 63.8302 105.568 67.3494 102.56 71.2739Z" fill="#FFDC9D"/>
<path d="M88.9757 45.6802C94.7341 44.4148 101.017 47.5979 104.203 52.4912C107.092 56.9693 110.426 60.9729 115.175 63.7013C110.05 63.5926 105.578 60.0635 102.57 56.139C100.799 53.4995 98.8302 50.8898 96.1588 49.0709C94.0909 47.6078 91.6669 46.5303 88.9757 45.6802Z" fill="#FFDC9D"/>
<path d="M127.711 62.6448C127.454 64.6911 125.712 66.2629 123.585 66.2629C121.29 66.2629 119.43 64.4045 119.43 62.111C119.43 59.9956 121.003 58.2557 123.051 57.9987C122.853 57.9789 122.655 57.969 122.447 57.969C119.528 57.969 117.154 60.3317 117.154 63.2479C117.154 66.1739 119.528 68.5366 122.447 68.5366C125.366 68.5366 127.741 66.1739 127.741 63.2479C127.741 63.0501 127.731 62.8426 127.711 62.6448Z" fill="#FFDC9D"/>
<path d="M78.7747 95.7212C80.239 93.6552 81.3175 91.2333 82.1684 88.5444C83.4249 94.2977 80.2489 100.575 75.3613 103.758C70.8793 106.645 66.8722 109.976 64.1315 114.721C64.2403 109.6 67.7725 105.132 71.7005 102.127C74.3422 100.358 76.9542 98.3903 78.7747 95.7212Z" fill="#FFDC9D"/>
<path d="M56.5528 102.117C53.9111 100.358 51.2991 98.3805 49.4786 95.7114C48.0142 93.6453 46.9358 91.2333 46.0849 88.5346C44.8185 94.2879 48.0044 100.565 52.9019 103.748C57.374 106.635 61.3811 109.956 64.1317 114.711C64.0129 109.591 60.4808 105.122 56.5528 102.117Z" fill="#FFDC9D"/>
<path d="M58.3734 121.986C58.3734 119.07 60.7381 116.697 63.6568 116.697C66.5855 116.697 68.96 119.07 68.9501 121.986C68.9501 124.902 66.5855 127.274 63.6568 127.274C63.4491 127.274 63.2512 127.265 63.0533 127.245C65.1014 126.978 66.6745 125.238 66.6745 123.123C66.6745 120.829 64.8144 118.971 62.519 118.971C60.4017 118.971 58.6603 120.542 58.4031 122.589C58.3833 122.391 58.3734 122.193 58.3734 121.986Z" fill="#FFDC9D"/>
</svg>
