<svg width="26" height="26" viewBox="0 0 26 26" fill="none" xmlns="http://www.w3.org/2000/svg">
<g clip-path="url(#clip0_859_1082)">
<path d="M0 15.9355V19.3743C0 20.8001 1.13226 21.8065 2.51613 21.8065H23.4839C24.8677 21.8065 26 20.8001 26 19.3743V15.9355H0Z" fill="#E73B36"/>
<path d="M23.4839 4.19336H2.51613C1.13226 4.19336 0 5.19981 0 6.62562V10.0643H26V6.62562C26 5.19981 24.8677 4.19336 23.4839 4.19336Z" fill="#F0F7F6"/>
<path d="M26 10.0645H0V15.9354H26V10.0645Z" fill="#3757A6"/>
<path d="M23.3999 21.8065C24.7838 21.8065 25.9999 20.8001 25.9999 19.3743V15.9355H16.5225L23.3999 21.8065Z" fill="#D31C1C"/>
<path d="M23.4843 4.19336H2.5166L9.47789 10.0643H26.0005V6.62562C26.0005 5.19981 24.8682 4.19336 23.4843 4.19336Z" fill="#DFF2EF"/>
<path d="M16.5646 15.9354H26.0001V10.0645H9.43555L16.5646 15.9354Z" fill="#20448E"/>
<path d="M23.4843 4.19336H2.5166L21.9327 10.0643H26.0005V6.62562C26.0005 5.19981 24.8682 4.19336 23.4843 4.19336Z" fill="#CAEAE4"/>
<path d="M26.0001 11.2386V10.0645H21.7227L26.0001 11.2386Z" fill="#103577"/>
<path d="M26 19.332C26 20.8836 24.8677 21.8062 23.4839 21.8062H2.51613C1.13226 21.8062 0 20.7158 0 19.29" fill="#C41010"/>
</g>
<defs>
<clipPath id="clip0_859_1082">
<rect width="26" height="26" fill="white"/>
</clipPath>
</defs>
</svg>
