<svg width="76" height="87" viewBox="0 0 76 87" fill="none" xmlns="http://www.w3.org/2000/svg">
<path d="M74.9297 28.4341C70.4339 8.82732 53.1786 0 38.0214 0H37.9786C22.8642 0 5.56612 8.78488 1.07033 28.3917C-3.93926 50.2902 9.59092 68.8361 21.8366 80.5068C26.177 84.6709 31.9808 86.9993 38.0214 87C43.8445 87 49.6676 84.8356 54.1634 80.5068C66.4091 68.8361 79.9393 50.3327 74.9297 28.4341Z" fill="#FFE2AE"/>
<circle cx="38" cy="38" r="33" fill="#1A5551"/>
<path d="M26.8285 36.1098C26.3509 35.1845 26.0016 34.2696 25.8449 33.3468C25.6241 32.1734 25.791 30.9767 26.017 29.824C26.2558 28.0121 26.0119 25.9212 24.7099 24.5539C25.2312 26.5105 25.0566 28.4283 24.6431 30.3538C24.1988 32.4655 25.0052 34.9364 26.8285 36.1098Z" fill="white"/>
<path d="M29.9487 25.8721C31.0915 25.642 32.283 25.4766 33.4489 25.6989C34.3657 25.8565 35.2723 26.2055 36.1942 26.6888C35.0283 24.8537 32.5707 24.0447 30.4726 24.4919C28.5619 24.9054 26.659 25.0837 24.7099 24.5591C26.0709 25.8669 28.1485 26.1124 29.9487 25.8721Z" fill="white"/>
<path d="M24.3144 21.1525C24.2605 21.0982 24.2065 21.0491 24.15 21.0026C24.6149 21.6048 24.5712 22.4707 24.0216 23.0238C23.4258 23.6234 22.4603 23.6234 21.8645 23.0238C21.3149 22.4707 21.2713 21.6048 21.7335 21C21.677 21.0465 21.6205 21.0982 21.5691 21.1499C20.809 21.915 20.8116 23.153 21.5691 23.9155C22.3267 24.6779 23.5568 24.6805 24.317 23.9155C25.0745 23.153 25.072 21.915 24.3144 21.1525Z" fill="white"/>
<path d="M41.0683 51.7702C40.1284 51.3256 39.2938 50.6872 38.5979 49.9196C41.0427 47.0351 41.5409 42.6102 39.2425 39.1442C42.6862 41.4574 47.0801 40.9586 49.9486 38.4954C51.9594 40.3796 53.0586 43.2641 52.527 46.2752C53.0971 44.4918 53.038 42.4991 52.3575 40.7337C51.9338 39.6301 51.3226 38.679 50.5804 37.8906C51.9235 36.4768 52.8146 34.5668 52.9122 32.2716C52.943 31.3308 52.7992 30.39 52.5244 29.5086C52.8172 31.292 52.5835 33.1866 51.7899 34.802C51.3482 35.748 50.7139 36.588 49.9512 37.2884C47.0391 34.7658 42.6194 34.391 39.2656 36.619C41.4792 33.2435 41.1094 28.7979 38.6004 25.8643C40.4725 23.8405 43.3385 22.7343 46.3303 23.2693C44.5583 22.6955 42.5784 22.755 40.8244 23.4399C39.7278 23.8664 38.7828 24.4815 38.0021 25.2259C37.2188 24.4789 36.2764 23.8664 35.1798 23.4399C33.4284 22.7576 31.4484 22.6981 29.6739 23.2693C32.6657 22.7343 35.5265 23.8405 37.4037 25.8643C34.8973 28.7953 34.5249 33.2435 36.7386 36.619C33.3847 34.391 28.9651 34.7658 26.053 37.2884C25.2902 36.588 24.6534 35.7506 24.2142 34.802C23.4156 33.1866 23.1844 31.2895 23.4798 29.5086C23.205 30.39 23.0612 31.3256 23.092 32.2716C23.1896 34.5668 24.0807 36.4768 25.4238 37.8906C24.6816 38.679 24.0704 39.6301 23.6467 40.7337C22.9687 42.4965 22.9097 44.4892 23.4772 46.2752C22.9456 43.2641 24.0447 40.3848 26.0555 38.4954C28.9215 40.956 33.318 41.4574 36.7617 39.1442C34.4633 42.6102 34.9615 47.0351 37.4063 49.9196C36.7104 50.6872 35.8783 51.3282 34.9358 51.7702C33.3308 52.574 31.4459 52.8066 29.6765 52.5094C30.5522 52.7859 31.4818 52.9307 32.4217 52.8997C34.7021 52.8014 36.6025 51.902 38.0072 50.5502C39.4145 51.9046 41.3123 52.8014 43.5927 52.8997C44.5275 52.9307 45.4623 52.7859 46.338 52.5094C44.5583 52.8066 42.6734 52.574 41.0683 51.7702ZM32.7607 39.382C30.6523 39.7361 28.4849 39.1313 26.7797 37.8855C28.4156 36.6681 30.506 36.053 32.7607 36.3941C34.0678 36.5673 35.2928 37.1023 36.3354 37.8881C35.2954 38.6764 34.0653 39.2114 32.7607 39.382ZM36.5126 32.618C36.1711 30.3461 36.7848 28.2396 37.997 26.5906C39.2091 28.2396 39.8228 30.3461 39.4813 32.618C39.3092 33.9336 38.7776 35.1664 37.997 36.2158C37.2188 35.169 36.6847 33.9336 36.5126 32.618ZM43.2383 36.3941C45.4931 36.053 47.5835 36.6681 49.2193 37.8855C47.509 39.1313 45.3416 39.7361 43.2383 39.382C41.9338 39.2114 40.7062 38.6738 39.6636 37.8881C40.7037 37.1049 41.9338 36.5699 43.2383 36.3941ZM36.5178 43.1633C36.6872 41.8503 37.2214 40.6149 38.0021 39.5655C38.7828 40.6149 39.3144 41.8477 39.4864 43.1633C39.8382 45.2801 39.2399 47.459 38.0047 49.1778C36.7643 47.459 36.1659 45.2801 36.5178 43.1633Z" fill="white"/>
<path d="M46.0118 49.948C44.8691 50.178 43.6775 50.3434 42.5116 50.1212C41.5948 49.9635 40.6883 49.6146 39.7663 49.1312C40.9322 50.9663 43.3899 51.7753 45.4879 51.3282C47.3986 50.9147 49.3015 50.7363 51.2507 51.261C49.887 49.9557 47.812 49.7076 46.0118 49.948Z" fill="white"/>
<path d="M51.3174 45.4662C51.7617 43.3546 50.9579 40.8811 49.1346 39.7076C49.6122 40.6329 49.9615 41.5479 50.1181 42.4706C50.339 43.6441 50.1721 44.8407 49.9461 45.9935C49.7073 47.8053 49.9512 49.8963 51.2532 51.2636C50.7268 49.307 50.904 47.3918 51.3174 45.4662Z" fill="white"/>
<path d="M54.7817 54.2618C54.1834 54.7296 53.3231 54.6856 52.7709 54.1299C52.1751 53.5303 52.1751 52.5585 52.7709 51.9588C53.3205 51.4057 54.1808 51.3618 54.7791 51.8296C54.7329 51.7728 54.6841 51.7185 54.6302 51.6642C53.8726 50.9017 52.6425 50.8991 51.885 51.6616C51.1248 52.4267 51.1274 53.6647 51.885 54.4272C52.6425 55.1896 53.8726 55.1922 54.6328 54.4272C54.6841 54.3755 54.7355 54.3186 54.7817 54.2618Z" fill="white"/>
<path d="M36.2301 49.1338C35.3108 49.6146 34.4017 49.9661 33.4849 50.1238C32.319 50.346 31.13 50.178 29.9846 49.9506C28.1844 49.7102 26.1069 49.9557 24.7484 51.2662C26.6924 50.7415 28.5979 50.9172 30.5111 51.3334C32.6092 51.7805 35.0642 50.9689 36.2301 49.1338Z" fill="white"/>
<path d="M26.0581 45.9935C25.8295 44.8433 25.6652 43.6441 25.886 42.4706C26.0427 41.5479 26.3894 40.6355 26.8696 39.7076C25.0463 40.8811 24.2425 43.3546 24.6868 45.4662C25.0976 47.3892 25.2748 49.3044 24.7535 51.2662C26.053 49.8963 26.2969 47.8053 26.0581 45.9935Z" fill="white"/>
<path d="M24.1141 51.6616C23.3565 50.8991 22.1264 50.9017 21.3688 51.6642C21.3149 51.7185 21.2661 51.7728 21.2199 51.8296C21.8182 51.3618 22.6785 51.4057 23.2281 51.9588C23.8239 52.5585 23.8239 53.5303 23.2281 54.1299C22.6785 54.6831 21.8182 54.727 21.2173 54.2618C21.2635 54.3186 21.3123 54.3729 21.3663 54.4272C22.1264 55.1922 23.3565 55.1896 24.1141 54.4272C24.8742 53.6673 24.8742 52.4267 24.1141 51.6616Z" fill="white"/>
<path d="M49.9795 29.8266C50.208 30.9767 50.3724 32.176 50.1515 33.3494C49.9949 34.2721 49.6482 35.1845 49.168 36.1124C50.9913 34.939 51.7951 32.4655 51.3508 30.3538C50.9399 28.4308 50.7627 26.5156 51.284 24.5539C49.9872 25.9263 49.7406 28.0147 49.9795 29.8266Z" fill="white"/>
<path d="M39.8074 26.6862C40.7268 26.2055 41.6359 25.854 42.5527 25.6963C43.7186 25.474 44.9076 25.642 46.0529 25.8695C47.8531 26.1098 49.9307 25.8643 51.2892 24.5539C49.3452 25.0786 47.4397 24.9028 45.5265 24.4867C43.4284 24.0395 40.9733 24.8511 39.8074 26.6862Z" fill="white"/>
<path d="M51.6821 23.9155C52.4422 24.6805 53.6723 24.6779 54.4299 23.9155C55.19 23.1556 55.19 21.915 54.4299 21.1499C54.376 21.0956 54.322 21.0465 54.2655 21C54.7304 21.6022 54.6867 22.4681 54.1346 23.0238C53.5388 23.6234 52.5732 23.6234 51.9774 23.0238C51.4278 22.4707 51.3842 21.6048 51.849 21.0026C51.7925 21.0491 51.7386 21.0982 51.6847 21.1525C50.9271 21.915 50.9245 23.153 51.6821 23.9155Z" fill="white"/>
</svg>
